# xmcd CD database file
# Copyright (C) 1997 Ti Kan
#
# Track frame offsets:
#  150
#  18367
#  44427
#  60502
#  70360
#  89342
#  103720
#  119154
#  139300
#  160532
#  183650
#  203362
#  221580
#  245842
#
# Disc length: 3649 seconds
#
# Revision: 1
# Processed by: cddbd v1.4b41PL1 Copyright (c) Steve Scherf et al.
# Submitted via: CDWizzard Release:4.24
#
DISCID=ce0e3f0e
DTITLE=Jorma Kaukonen - Magic Two
DYEAR=1900
DGENRE=
TTITLE0=Walking Blues
TTITLE1=Whinin' Boy Blues
TTITLE2=I'll Be Alright Someday
TTITLE3=Embryonic Journey
TTITLE4=Broken Highway
TTITLE5=Candy Man
TTITLE6=Follow The Drinking Gourd
TTITLE7=Rock Me Baby
TTITLE8=Another Man Gone Down
TTITLE9=Roads And Roads &
TTITLE10=Good Shepherd
TTITLE11=Police Dog Blues
TTITLE12=Come Back Baby
TTITLE13=Man's Fate
EXTD=
EXTT0=
EXTT1=
EXTT2=
EXTT3=
EXTT4=
EXTT5=
EXTT6=
EXTT7=
EXTT8=
EXTT9=
EXTT10=
EXTT11=
EXTT12=
EXTT13=
PLAYORDER=
